<svg xmlns="http://www.w3.org/2000/svg" width="369.997" height="292.955" viewBox="0 0 369.997 292.955"><g transform="translate(9.997 10.011)"><path d="M598.992,426.54a217.975,217.975,0,0,1-18.739-30.923c3.418-1.464,6.8-2.832,10.111-4.353,3.372-1.55,6.69-3.22,10-4.9,3.266-1.652,6.454-3.448,9.626-5.458a5.462,5.462,0,0,0-.576-.661c-2.013-1.612-4.052-3.192-6.043-4.83a1.424,1.424,0,0,0-1.76-.184,207.273,207.273,0,0,1-25.7,10.139,202.256,202.256,0,0,1-26.67,6.613c-5.16.9-10.335,1.7-15.558,2.11-4.044.321-8.094.618-12.147.776-4.189.164-8.388.257-12.578.175-3.7-.074-7.4-.421-11.1-.666-5.23-.347-10.416-1.064-15.593-1.868q-9.263-1.436-18.333-3.785a215.113,215.113,0,0,1-37.446-13.414,1.769,1.769,0,0,0-2.206.295c-1.7,1.437-3.479,2.788-5.22,4.18-.366.293-.71.613-1.243,1.074a184.606,184.606,0,0,0,29.56,14.539c-.351,2.9-13.514,24.935-18.562,31.076-.646-.186-1.352-.369-2.045-.591a292.508,292.508,0,0,1-32.254-12.462A284.517,284.517,0,0,1,363,396.53q-11.046-6.831-21.471-14.587a2.449,2.449,0,0,1-1.194-2.014c-.075-1.829-.311-3.65-.436-5.476-.258-3.787-.509-7.574-.719-11.364-.089-1.614-.085-3.234-.087-4.851-.01-5.423-.045-10.847.011-16.269.036-3.492.1-6.992.354-10.474.433-5.916.9-11.837,1.583-17.727a286.767,286.767,0,0,1,5.583-31.977,296.242,296.242,0,0,1,9.175-31.424q4.826-13.665,10.921-26.815a348.867,348.867,0,0,1,22.647-41.205c.774-1.217,1.6-2.4,2.349-3.633a3.417,3.417,0,0,1,1.658-1.417c6.158-2.6,12.278-5.288,18.484-7.766a245.8,245.8,0,0,1,23.6-7.879c9.159-2.621,18.441-4.7,27.808-6.423,1.112-.2,1.212-.143,1.754.846,3.023,5.524,5.746,11.195,8.267,16.963.529,1.21.527,1.213,1.825,1.05,4.155-.523,8.305-1.092,12.468-1.556,2.6-.289,5.216-.478,7.83-.612,4.4-.225,8.809-.389,13.215-.541,2.836-.1,5.677-.225,8.512-.17,3.926.077,7.85.283,11.772.487q9.546.5,19.021,1.769c1.644.22,3.29.42,4.935.627,1.275.16,1.248.146,1.765-.968q3.115-6.717,6.267-13.415c.6-1.262,1.288-2.482,1.969-3.7.516-.925.652-.986,1.666-.787,3.555.7,7.116,1.359,10.656,2.125a280.217,280.217,0,0,1,32.518,9.127A269.99,269.99,0,0,1,634.653,177.4a3.479,3.479,0,0,1,1.335,1.171c5.107,7.683,9.99,15.508,14.371,23.626,3.381,6.266,6.665,12.592,9.758,19a280.386,280.386,0,0,1,11.4,27.459,299.077,299.077,0,0,1,8.947,29.717c2.012,8.23,3.714,16.524,4.927,24.91.743,5.138,1.451,10.283,2.015,15.442.432,3.945.611,7.917.911,11.878.36,4.748.521,9.5.532,14.265.006,2.266.25,4.532.227,6.8-.039,3.753-.177,7.506-.332,11.256-.126,3.051-.307,6.1-.521,9.148-.19,2.7-.489,5.386-.676,8.083a1.965,1.965,0,0,1-.926,1.607c-3.676,2.6-7.3,5.274-11.012,7.818a282.341,282.341,0,0,1-25.4,15.485A274.828,274.828,0,0,1,614.3,421.329c-4.468,1.641-8.99,3.137-13.49,4.689C600.24,426.215,599.649,426.353,598.992,426.54ZM487.586,304.083c-.223-2.21-.346-4.436-.685-6.629A35.111,35.111,0,0,0,474.876,275.4a28.323,28.323,0,0,0-22.835-6.986,29.393,29.393,0,0,0-18.808,10.459,37.409,37.409,0,0,0-8.523,18.3,39.345,39.345,0,0,0,.359,15.984c1.966,8.487,6.065,15.733,13.074,21.044,8.719,6.608,18.325,8.125,28.532,3.993,7.9-3.2,13.334-9.121,16.971-16.711A41.319,41.319,0,0,0,487.586,304.083Zm84.158,36.352a29.067,29.067,0,0,0,12.814-2.891,32.623,32.623,0,0,0,14.97-15.063,40.194,40.194,0,0,0,3.9-24.3,35.607,35.607,0,0,0-10.65-21.4c-6.511-6.243-14.24-9.273-23.35-8.457a27.046,27.046,0,0,0-9.534,2.639,33.15,33.15,0,0,0-15.944,16.891A39.409,39.409,0,0,0,541.04,310.9,36.451,36.451,0,0,0,553.048,333,28.749,28.749,0,0,0,571.745,340.435Z" transform="translate(-339.077 -155.124)" fill="none" stroke="#7289DA" stroke-width="20"/></g></svg>